<svg width="24" height="24" viewBox="0 0 24 24" fill="none" xmlns="http://www.w3.org/2000/svg">
<g clip-path="url(#clip0_37_84)">
<path fill-rule="evenodd" clip-rule="evenodd" d="M17.0306 9.96937C17.1715 10.1101 17.2506 10.3009 17.2506 10.5C17.2506 10.6991 17.1715 10.8899 17.0306 11.0306L14.0306 14.0306C13.8899 14.1715 13.6991 14.2506 13.5 14.2506C13.3009 14.2506 13.1101 14.1715 12.9694 14.0306L10.5 11.5603L8.03063 14.0306C7.73757 14.3237 7.26243 14.3237 6.96938 14.0306C6.67632 13.7376 6.67632 13.2624 6.96938 12.9694L9.96937 9.96937C10.1101 9.82854 10.3009 9.74941 10.5 9.74941C10.6991 9.74941 10.8899 9.82854 11.0306 9.96937L13.5 12.4397L15.9694 9.96937C16.1101 9.82854 16.3009 9.74941 16.5 9.74941C16.6991 9.74941 16.8899 9.82854 17.0306 9.96937ZM21.75 12C21.7507 15.424 19.9553 18.5975 17.02 20.3605C14.0847 22.1234 10.4398 22.2174 7.4175 20.6081L4.22531 21.6722C3.68626 21.852 3.09191 21.7117 2.69011 21.3099C2.28831 20.9081 2.14805 20.3137 2.32781 19.7747L3.39188 16.5825C1.48674 13.0006 1.99874 8.61332 4.67747 5.56638C7.35619 2.51944 11.6418 1.44968 15.4382 2.88032C19.2346 4.31096 21.7483 7.94298 21.75 12ZM20.25 12C20.249 8.53154 18.0787 5.43408 14.819 4.24891C11.5593 3.06374 7.90643 4.04399 5.67801 6.70188C3.44959 9.35977 3.12157 13.1276 4.85719 16.1306C4.9647 16.3167 4.98723 16.5399 4.91906 16.7437L3.75 20.25L7.25625 19.08C7.46018 19.0121 7.68344 19.035 7.86938 19.1428C10.422 20.6192 13.5685 20.621 16.1228 19.1473C18.677 17.6737 20.2505 14.9488 20.25 12Z" fill="#A1824A"/>
</g>
<defs>
<clipPath id="clip0_37_84">
<rect width="24" height="24" fill="white"/>
</clipPath>
</defs>
</svg>
